<svg width="1280" height="720" xmlns="http://www.w3.org/2000/svg" xmlns:xlink="http://www.w3.org/1999/xlink" overflow="hidden"><defs><clipPath id="clip0"><rect x="0" y="0" width="1280" height="720"/></clipPath></defs><g clip-path="url(#clip0)"><rect x="0" y="0" width="1280" height="720" fill="#FFFFFF"/><text font-family="Arial,Arial_MSFontService,sans-serif" font-weight="400" font-size="32" transform="translate(62.2085 464)">1. Find sailors who have reserved <tspan font-weight="700" font-size="32" x="487.667" y="0">some</tspan><tspan font-size="32" x="580.167" y="0">boat.</tspan><tspan font-size="32" x="0" y="47">2. Find sailors who have </tspan><tspan font-weight="700" font-size="32" x="354.167" y="47">not</tspan><tspan font-size="32" x="412.667" y="47">reserved </tspan><tspan font-weight="700" font-size="32" x="546.167" y="47">any</tspan><tspan font-size="32" x="610.167" y="47">boat.</tspan><tspan font-size="32" x="0" y="93">3. Find sailors who have </tspan><tspan font-weight="700" font-size="32" x="354.167" y="93">not</tspan><tspan font-size="32" x="412.667" y="93">reserved </tspan><tspan font-weight="700" font-size="32" x="546.167" y="93">all</tspan><tspan font-size="32" x="590.5" y="93">boats.</tspan><tspan font-size="32" x="0" y="139">4. Find sailors who have reserved </tspan><tspan font-weight="700" font-size="32" x="487.667" y="139">all</tspan><tspan font-size="32" x="532" y="139">boats.</tspan></text><rect x="605" y="229" width="143" height="39" stroke="#000000" stroke-width="2" stroke-miterlimit="8"/><text fill="#FFFFFF" font-family="Arial,Arial_MSFontService,sans-serif" font-weight="400" font-size="27" transform="translate(641.939 259)">Sailor</text><rect x="605" y="306" width="143" height="38" stroke="#000000" stroke-width="2" stroke-miterlimit="8" fill="#FFFFFF"/><text font-family="Arial,Arial_MSFontService,sans-serif" font-weight="400" font-size="27" transform="translate(659.023 335)">sid</text><path d="M658.689 337.825 693.689 337.825 693.689 338.825 658.689 338.825Z" fill-rule="evenodd"/><rect x="605" y="268" width="143" height="38" stroke="#000000" stroke-width="2" stroke-miterlimit="8" fill="#FFFFFF"/><text font-family="Arial,Arial_MSFontService,sans-serif" font-weight="400" font-size="27" transform="translate(636.106 297)">sname</text><rect x="780" y="229" width="143" height="39" stroke="#000000" stroke-width="2" stroke-miterlimit="8"/><text fill="#FFFFFF" font-family="Arial,Arial_MSFontService,sans-serif" font-weight="400" font-size="27" transform="translate(795.568 259)">Reserves</text><rect x="780" y="306" width="143" height="38" stroke="#000000" stroke-width="2" stroke-miterlimit="8" fill="#FFFFFF"/><text font-family="Arial,Arial_MSFontService,sans-serif" font-weight="400" font-size="27" transform="translate(834.818 335)">sid</text><rect x="780" y="268" width="143" height="38" stroke="#000000" stroke-width="2" stroke-miterlimit="8" fill="#FFFFFF"/><text font-family="Arial,Arial_MSFontService,sans-serif" font-weight="400" font-size="27" transform="translate(834.068 297)">bid</text><rect x="956" y="230" width="143" height="38" stroke="#000000" stroke-width="2" stroke-miterlimit="8"/><text fill="#FFFFFF" font-family="Arial,Arial_MSFontService,sans-serif" font-weight="400" font-size="27" transform="translate(1000.28 259)">Boat</text><rect x="956" y="268" width="143" height="38" stroke="#000000" stroke-width="2" stroke-miterlimit="8" fill="#FFFFFF"/><text font-family="Arial,Arial_MSFontService,sans-serif" font-weight="400" font-size="27" transform="translate(1009.86 297)">bid</text><path d="M1010.28 300.062 1045.28 300.062 1045.28 301.062 1010.28 301.062Z" fill-rule="evenodd"/><rect x="956" y="306" width="143" height="39" stroke="#000000" stroke-width="2" stroke-miterlimit="8" fill="#FFFFFF"/><text font-family="Arial,Arial_MSFontService,sans-serif" font-weight="400" font-size="27" transform="translate(998.78 336)">color</text><path d="M751.247 324.167 781.339 324.167 781.339 326.833 751.247 326.833ZM762.599 333.332 748.501 325.5 762.599 317.668C763.243 317.31 764.055 317.542 764.412 318.186 764.77 318.83 764.538 319.641 763.894 319.999L751.894 326.666 751.894 324.335 763.894 331.001C764.538 331.359 764.77 332.171 764.412 332.814 764.055 333.458 763.243 333.69 762.599 333.332Z"/><path d="M953.584 289.037 923.491 288.833 923.509 286.167 953.602 286.371ZM942.294 279.795 956.338 287.723 942.187 295.459C941.541 295.812 940.731 295.575 940.378 294.929 940.025 294.283 940.262 293.473 940.908 293.119L952.953 286.534 952.937 288.865 940.983 282.117C940.341 281.755 940.115 280.942 940.477 280.301 940.839 279.659 941.652 279.433 942.294 279.795Z"/><text font-family="Arial,Arial_MSFontService,sans-serif" font-weight="400" font-size="32" transform="translate(20.5028 134)">•<tspan font-size="32" x="30" y="0">This study measures whether you can quickly and correctly recognize 4 </tspan><tspan font-size="32" x="30" y="39">different relational patterns. They will be shown using many database </tspan><tspan font-size="32" x="30" y="77">schemas.</tspan><tspan font-size="32" x="0" y="154">•</tspan><tspan font-size="32" x="30" y="154">This tutorial uses a Sailor / Reserves</tspan><tspan font-size="32" x="38.8333" y="192">/ Boat database:</tspan><tspan font-size="32" x="0" y="269">•</tspan><tspan font-size="32" x="30" y="269">We will show these four relational query patterns using SQL and Diagrams:</tspan><tspan font-size="40" x="-9.90236" y="-85">4 relational patterns</tspan><tspan font-size="19" x="1134.81" y="-106">Page: 2/8</tspan></text></g></svg>