<svg width="1280" height="720" xmlns="http://www.w3.org/2000/svg" xmlns:xlink="http://www.w3.org/1999/xlink" overflow="hidden"><defs><filter id="fx0" x="-10%" y="-10%" width="120%" height="120%" filterUnits="userSpaceOnUse" primitiveUnits="userSpaceOnUse"><feComponentTransfer color-interpolation-filters="sRGB"><feFuncR type="discrete" tableValues="1 1"/><feFuncG type="discrete" tableValues="1 1"/><feFuncB type="discrete" tableValues="1 1"/><feFuncA type="linear" slope="0.4" intercept="0"/></feComponentTransfer><feGaussianBlur stdDeviation="1.77778 1.77778"/></filter><filter id="fx1" x="-10%" y="-10%" width="120%" height="120%" filterUnits="userSpaceOnUse" primitiveUnits="userSpaceOnUse"><feComponentTransfer color-interpolation-filters="sRGB"><feFuncR type="discrete" tableValues="1 1"/><feFuncG type="discrete" tableValues="0 0"/><feFuncB type="discrete" tableValues="0 0"/><feFuncA type="linear" slope="0.4" intercept="0"/></feComponentTransfer><feGaussianBlur stdDeviation="0.585939 0.585939"/></filter><filter id="fx2" x="-10%" y="-10%" width="120%" height="120%" filterUnits="userSpaceOnUse" primitiveUnits="userSpaceOnUse"><feComponentTransfer color-interpolation-filters="sRGB"><feFuncR type="discrete" tableValues="1 1"/><feFuncG type="discrete" tableValues="1 1"/><feFuncB type="discrete" tableValues="1 1"/><feFuncA type="linear" slope="0.4" intercept="0"/></feComponentTransfer><feGaussianBlur stdDeviation="1.77778 1.77778"/></filter><filter id="fx3" x="-10%" y="-10%" width="120%" height="120%" filterUnits="userSpaceOnUse" primitiveUnits="userSpaceOnUse"><feComponentTransfer color-interpolation-filters="sRGB"><feFuncR type="discrete" tableValues="1 1"/><feFuncG type="discrete" tableValues="0 0"/><feFuncB type="discrete" tableValues="0 0"/><feFuncA type="linear" slope="0.4" intercept="0"/></feComponentTransfer><feGaussianBlur stdDeviation="0.585939 0.585939"/></filter><filter id="fx4" x="-10%" y="-10%" width="120%" height="120%" filterUnits="userSpaceOnUse" primitiveUnits="userSpaceOnUse"><feComponentTransfer color-interpolation-filters="sRGB"><feFuncR type="discrete" tableValues="0 0"/><feFuncG type="discrete" tableValues="0 0"/><feFuncB type="discrete" tableValues="0 0"/><feFuncA type="linear" slope="0.431373" intercept="0"/></feComponentTransfer><feGaussianBlur stdDeviation="0.463613 0.463613"/></filter><clipPath id="clip5"><rect x="0" y="0" width="1280" height="720"/></clipPath><clipPath id="clip6"><path d="M985 424 985 450 1058 450 1058 424ZM1.90735e-05 1.07288e-05 1280 1.07288e-05 1280 720 1.90735e-05 720Z" fill-rule="evenodd" clip-rule="evenodd"/></clipPath><clipPath id="clip7"><rect x="-2" y="-2" width="91" height="44"/></clipPath><clipPath id="clip8"><rect x="0" y="0" width="89" height="42"/></clipPath><clipPath id="clip9"><rect x="9" y="9" width="62" height="31"/></clipPath><clipPath id="clip10"><rect x="0" y="0" width="79" height="53"/></clipPath><clipPath id="clip11"><rect x="12" y="11" width="43" height="14"/></clipPath><clipPath id="clip12"><rect x="0" y="0" width="66" height="40"/></clipPath><clipPath id="clip13"><rect x="12" y="11" width="43" height="14"/></clipPath><clipPath id="clip14"><rect x="0" y="0" width="66" height="40"/></clipPath><clipPath id="clip15"><rect x="12" y="11" width="42" height="14"/></clipPath><clipPath id="clip16"><rect x="0" y="0" width="65" height="41"/></clipPath></defs><g clip-path="url(#clip5)"><rect x="0" y="0" width="1280" height="720" fill="#FFFFFF"/><path d="M1068 598.699C1068 589.477 1075.48 582 1084.7 582L1242.3 582C1251.52 582 1259 589.477 1259 598.699L1259 683.301C1259 692.523 1251.52 700 1242.3 700L1084.7 700C1075.48 700 1068 692.523 1068 683.301Z" stroke="#000000" stroke-width="2" stroke-miterlimit="8" stroke-dasharray="8 6" fill="#FFFFFF" fill-rule="evenodd"/><path d="M1074 605.869C1074 598.209 1080.21 592 1087.87 592L1163.13 592C1170.79 592 1177 598.209 1177 605.869L1177 676.131C1177 683.791 1170.79 690 1163.13 690L1087.87 690C1080.21 690 1074 683.791 1074 676.131Z" stroke="#000000" stroke-width="2" stroke-miterlimit="8" stroke-dasharray="8 6" fill="#FFFFFF" fill-rule="evenodd"/><path d="M967 641 985.377 641" stroke="#000000" stroke-width="2" stroke-miterlimit="8" fill="none" fill-rule="evenodd"/><rect x="905" y="603" width="62" height="25" stroke="#000000" stroke-width="2" stroke-miterlimit="8" fill="#D9D9D9"/><text font-family="Arial,Arial_MSFontService,sans-serif" font-weight="400" font-size="16" transform="translate(929.662 622)">Q</text><rect x="905" y="628" width="62" height="26" stroke="#000000" stroke-width="2" stroke-miterlimit="8" fill="#FFFFFF"/><text font-family="Arial,Arial_MSFontService,sans-serif" font-weight="400" font-size="16" transform="translate(911.995 647)">sname</text><rect x="985" y="603" width="73" height="25" stroke="#000000" stroke-width="2" stroke-miterlimit="8"/><text fill="#FFFFFF" font-family="Arial,Arial_MSFontService,sans-serif" font-weight="400" font-size="16" transform="translate(1001.13 622)">Sailor</text><rect x="985" y="653" width="73" height="26" stroke="#000000" stroke-width="2" stroke-miterlimit="8" fill="#FFFFFF"/><text font-family="Arial,Arial_MSFontService,sans-serif" font-weight="400" font-size="16" transform="translate(1011.3 672)">sid</text><rect x="985" y="628" width="73" height="26" stroke="#000000" stroke-width="2" stroke-miterlimit="8" fill="#FFFFFF"/><text font-family="Arial,Arial_MSFontService,sans-serif" font-weight="400" font-size="16" transform="translate(997.547 647)">sname</text><rect x="1085" y="603" width="81" height="25" stroke="#000000" stroke-width="2" stroke-miterlimit="8"/><text fill="#FFFFFF" font-family="Arial,Arial_MSFontService,sans-serif" font-weight="400" font-size="16" transform="translate(1091.97 622)">Reserves</text><rect x="1085" y="653" width="81" height="26" stroke="#000000" stroke-width="2" stroke-miterlimit="8" fill="#FFFFFF"/><text font-family="Arial,Arial_MSFontService,sans-serif" font-weight="400" font-size="16" transform="translate(1115.47 672)">sid</text><rect x="1085" y="628" width="81" height="26" stroke="#000000" stroke-width="2" stroke-miterlimit="8" fill="#FFFFFF"/><text font-family="Arial,Arial_MSFontService,sans-serif" font-weight="400" font-size="16" transform="translate(1115.05 647)">bid</text><rect x="1187" y="603" width="58" height="25" stroke="#000000" stroke-width="2" stroke-miterlimit="8"/><text fill="#FFFFFF" font-family="Arial,Arial_MSFontService,sans-serif" font-weight="400" font-size="16" transform="translate(1199.81 622)">Boat</text><rect x="1187" y="628" width="58" height="26" stroke="#000000" stroke-width="2" stroke-miterlimit="8" fill="#FFFFFF"/><text font-family="Arial,Arial_MSFontService,sans-serif" font-weight="400" font-size="16" transform="translate(1205.64 647)">bid</text><path d="M1187.38 641.147 1166 641" stroke="#000000" stroke-width="2" stroke-miterlimit="8" fill="none" fill-rule="evenodd"/><path d="M0 0 27.348 0.000104987" stroke="#000000" stroke-width="2" stroke-miterlimit="8" fill="none" fill-rule="evenodd" transform="matrix(-1 0 0 1 1085.35 666)"/><path d="M1074 426.869C1074 419.209 1080.21 413 1087.87 413L1163.13 413C1170.79 413 1177 419.209 1177 426.869L1177 497.131C1177 504.791 1170.79 511 1163.13 511L1087.87 511C1080.21 511 1074 504.791 1074 497.131Z" stroke="#000000" stroke-width="2" stroke-miterlimit="8" stroke-dasharray="8 6" fill="#FFFFFF" fill-rule="evenodd"/><path d="M967 462 985.377 462" stroke="#000000" stroke-width="2" stroke-miterlimit="8" fill="none" fill-rule="evenodd"/><rect x="905" y="424" width="62" height="26" stroke="#000000" stroke-width="2" stroke-miterlimit="8" fill="#D9D9D9"/><text font-family="Arial,Arial_MSFontService,sans-serif" font-weight="400" font-size="16" transform="translate(929.662 443)">Q</text><rect x="905" y="449" width="62" height="26" stroke="#000000" stroke-width="2" stroke-miterlimit="8" fill="#FFFFFF"/><text font-family="Arial,Arial_MSFontService,sans-serif" font-weight="400" font-size="16" transform="translate(911.995 469)">sname</text><g clip-path="url(#clip6)"><g clip-path="url(#clip7)" filter="url(#fx0)" transform="translate(980 419)"><g clip-path="url(#clip8)"><rect x="7.82843" y="7.82843" width="73" height="26" stroke="#000000" stroke-width="2" stroke-miterlimit="8"/></g></g><g clip-path="url(#clip9)" filter="url(#fx2)" transform="translate(987 418)"><g clip-path="url(#clip10)"><g clip-path="url(#clip11)" filter="url(#fx1)" transform="translate(7 7)"><g clip-path="url(#clip12)"><path d="M0.71875-3.67969 2.14844-3.80469C2.21615-3.23177 2.3737-2.76172 2.62109-2.39453 2.86849-2.02734 3.2526-1.73047 3.77344-1.50391 4.29427-1.27734 4.88021-1.16406 5.53125-1.16406 6.10937-1.16406 6.61979-1.25 7.0625-1.42188 7.50521-1.59375 7.83464-1.82943 8.05078-2.12891 8.26693-2.42839 8.375-2.75521 8.375-3.10938 8.375-3.46875 8.27083-3.78255 8.0625-4.05078 7.85417-4.31901 7.51042-4.54427 7.03125-4.72656 6.72396-4.84635 6.04427-5.03255 4.99219-5.28516 3.9401-5.53776 3.20312-5.77604 2.78125-6 2.23438-6.28646 1.82682-6.64193 1.55859-7.06641 1.29036-7.49089 1.15625-7.96615 1.15625-8.49219 1.15625-9.07031 1.32031-9.61068 1.64844-10.1133 1.97656-10.6159 2.45573-10.9974 3.08594-11.2578 3.71615-11.5182 4.41667-11.6484 5.1875-11.6484 6.03646-11.6484 6.78516-11.5117 7.43359-11.2383 8.08203-10.9648 8.58073-10.5625 8.92969-10.0312 9.27865-9.5 9.46615-8.89844 9.49219-8.22656L8.03906-8.11719C7.96094-8.84115 7.69661-9.38802 7.24609-9.75781 6.79557-10.1276 6.13021-10.3125 5.25-10.3125 4.33333-10.3125 3.66536-10.1445 3.24609-9.80859 2.82682-9.47266 2.61719-9.06771 2.61719-8.59375 2.61719-8.18229 2.76562-7.84375 3.0625-7.57812 3.35417-7.3125 4.11589-7.04036 5.34766-6.76172 6.57943-6.48307 7.42448-6.23958 7.88281-6.03125 8.54948-5.72396 9.04167-5.33464 9.35938-4.86328 9.67708-4.39193 9.83594-3.84896 9.83594-3.23438 9.83594-2.625 9.66146-2.05078 9.3125-1.51172 8.96354-0.972656 8.46224-0.553385 7.80859-0.253906 7.15495 0.0455729 6.41927 0.195312 5.60156 0.195312 4.5651 0.195312 3.69661 0.0442708 2.99609-0.257812 2.29557-0.559896 1.74609-1.01432 1.34766-1.62109 0.949219-2.22786 0.739583-2.91406 0.71875-3.67969ZM17.1354-1.02344C16.6146-0.580729 16.1133-0.268229 15.6315-0.0859375 15.1497 0.0963542 14.6328 0.1875 14.0807 0.1875 13.1693 0.1875 12.4688-0.0351563 11.9792-0.480469 11.4896-0.925781 11.2448-1.49479 11.2448-2.1875 11.2448-2.59375 11.3372-2.96484 11.5221-3.30078 11.707-3.63672 11.9492-3.90625 12.2487-4.10938 12.5482-4.3125 12.8854-4.46615 13.2604-4.57031 13.5365-4.64323 13.9531-4.71354 14.5104-4.78125 15.6458-4.91667 16.4818-5.07812 17.0182-5.26562 17.0234-5.45833 17.026-5.58073 17.026-5.63281 17.026-6.20573 16.8932-6.60937 16.6276-6.84375 16.2682-7.16146 15.7344-7.32031 15.026-7.32031 14.3646-7.32031 13.8763-7.20443 13.5612-6.97266 13.2461-6.74089 13.013-6.33073 12.862-5.74219L11.487-5.92969C11.612-6.51823 11.8177-6.99349 12.1042-7.35547 12.3906-7.71745 12.8047-7.99609 13.3464-8.19141 13.888-8.38672 14.5156-8.48438 15.2292-8.48438 15.9375-8.48438 16.513-8.40104 16.9557-8.23438 17.3984-8.06771 17.724-7.85807 17.9323-7.60547 18.1406-7.35286 18.2865-7.03385 18.3698-6.64844 18.4167-6.40885 18.4401-5.97656 18.4401-5.35156L18.4401-3.47656C18.4401-2.16927 18.4701-1.34245 18.5299-0.996094 18.5898-0.64974 18.7083-0.317708 18.8854 0L17.4167 0C17.2708-0.291667 17.1771-0.632812 17.1354-1.02344ZM17.0182-4.16406C16.5078-3.95573 15.7422-3.77865 14.7214-3.63281 14.1432-3.54948 13.7344-3.45573 13.4948-3.35156 13.2552-3.2474 13.0703-3.09505 12.9401-2.89453 12.8099-2.69401 12.7448-2.47135 12.7448-2.22656 12.7448-1.85156 12.8867-1.53906 13.1706-1.28906 13.4544-1.03906 13.8698-0.914062 14.4167-0.914062 14.9583-0.914062 15.4401-1.03255 15.862-1.26953 16.2839-1.50651 16.5938-1.83073 16.7917-2.24219 16.9427-2.5599 17.0182-3.02865 17.0182-3.64844ZM20.5625-9.83594 20.5625-11.4531 21.9688-11.4531 21.9688-9.83594ZM20.5625 0 20.5625-8.29688 21.9688-8.29688 21.9688 0ZM24.0234 0 24.0234-11.4531 25.4297-11.4531 25.4297 0ZM27.0312-4.14844C27.0312-5.6849 27.4583-6.82292 28.3125-7.5625 29.026-8.17708 29.8958-8.48438 30.9219-8.48438 32.0625-8.48438 32.9948-8.11068 33.7188-7.36328 34.4427-6.61589 34.8047-5.58333 34.8047-4.26562 34.8047-3.19792 34.6445-2.35807 34.3242-1.74609 34.0039-1.13411 33.5378-0.658854 32.9258-0.320312 32.3138 0.0182292 31.6458 0.1875 30.9219 0.1875 29.7604 0.1875 28.8216-0.184896 28.1055-0.929688 27.3893-1.67448 27.0312-2.7474 27.0312-4.14844ZM28.4766-4.14844C28.4766-3.08594 28.7083-2.29036 29.1719-1.76172 29.6354-1.23307 30.2188-0.96875 30.9219-0.96875 31.6198-0.96875 32.2005-1.23438 32.6641-1.76562 33.1276-2.29688 33.3594-3.10677 33.3594-4.19531 33.3594-5.22135 33.1263-5.9987 32.6602-6.52734 32.194-7.05599 31.6146-7.32031 30.9219-7.32031 30.2188-7.32031 29.6354-7.05729 29.1719-6.53125 28.7083-6.00521 28.4766-5.21094 28.4766-4.14844ZM36.3724 0 36.3724-8.29688 37.638-8.29688 37.638-7.03906C37.9609-7.6276 38.2591-8.01562 38.5326-8.20312 38.806-8.39062 39.1068-8.48438 39.4349-8.48438 39.9089-8.48438 40.3906-8.33333 40.8802-8.03125L40.3958-6.72656C40.0521-6.92969 39.7083-7.03125 39.3646-7.03125 39.0573-7.03125 38.7812-6.9388 38.5365-6.75391 38.2917-6.56901 38.1172-6.3125 38.013-5.98438 37.8568-5.48438 37.7786-4.9375 37.7786-4.34375L37.7786 0Z" fill="#FFFFFF" transform="translate(-974.438 -394)"/></g></g><path d="M0.71875-3.67969 2.14844-3.80469C2.21615-3.23177 2.3737-2.76172 2.62109-2.39453 2.86849-2.02734 3.2526-1.73047 3.77344-1.50391 4.29427-1.27734 4.88021-1.16406 5.53125-1.16406 6.10937-1.16406 6.61979-1.25 7.0625-1.42188 7.50521-1.59375 7.83464-1.82943 8.05078-2.12891 8.26693-2.42839 8.375-2.75521 8.375-3.10938 8.375-3.46875 8.27083-3.78255 8.0625-4.05078 7.85417-4.31901 7.51042-4.54427 7.03125-4.72656 6.72396-4.84635 6.04427-5.03255 4.99219-5.28516 3.9401-5.53776 3.20312-5.77604 2.78125-6 2.23438-6.28646 1.82682-6.64193 1.55859-7.06641 1.29036-7.49089 1.15625-7.96615 1.15625-8.49219 1.15625-9.07031 1.32031-9.61068 1.64844-10.1133 1.97656-10.6159 2.45573-10.9974 3.08594-11.2578 3.71615-11.5182 4.41667-11.6484 5.1875-11.6484 6.03646-11.6484 6.78516-11.5117 7.43359-11.2383 8.08203-10.9648 8.58073-10.5625 8.92969-10.0312 9.27865-9.5 9.46615-8.89844 9.49219-8.22656L8.03906-8.11719C7.96094-8.84115 7.69661-9.38802 7.24609-9.75781 6.79557-10.1276 6.13021-10.3125 5.25-10.3125 4.33333-10.3125 3.66536-10.1445 3.24609-9.80859 2.82682-9.47266 2.61719-9.06771 2.61719-8.59375 2.61719-8.18229 2.76562-7.84375 3.0625-7.57812 3.35417-7.3125 4.11589-7.04036 5.34766-6.76172 6.57943-6.48307 7.42448-6.23958 7.88281-6.03125 8.54948-5.72396 9.04167-5.33464 9.35938-4.86328 9.67708-4.39193 9.83594-3.84896 9.83594-3.23438 9.83594-2.625 9.66146-2.05078 9.3125-1.51172 8.96354-0.972656 8.46224-0.553385 7.80859-0.253906 7.15495 0.0455729 6.41927 0.195312 5.60156 0.195312 4.5651 0.195312 3.69661 0.0442708 2.99609-0.257812 2.29557-0.559896 1.74609-1.01432 1.34766-1.62109 0.949219-2.22786 0.739583-2.91406 0.71875-3.67969ZM17.1354-1.02344C16.6146-0.580729 16.1133-0.268229 15.6315-0.0859375 15.1497 0.0963542 14.6328 0.1875 14.0807 0.1875 13.1693 0.1875 12.4688-0.0351563 11.9792-0.480469 11.4896-0.925781 11.2448-1.49479 11.2448-2.1875 11.2448-2.59375 11.3372-2.96484 11.5221-3.30078 11.707-3.63672 11.9492-3.90625 12.2487-4.10938 12.5482-4.3125 12.8854-4.46615 13.2604-4.57031 13.5365-4.64323 13.9531-4.71354 14.5104-4.78125 15.6458-4.91667 16.4818-5.07812 17.0182-5.26562 17.0234-5.45833 17.026-5.58073 17.026-5.63281 17.026-6.20573 16.8932-6.60937 16.6276-6.84375 16.2682-7.16146 15.7344-7.32031 15.026-7.32031 14.3646-7.32031 13.8763-7.20443 13.5612-6.97266 13.2461-6.74089 13.013-6.33073 12.862-5.74219L11.487-5.92969C11.612-6.51823 11.8177-6.99349 12.1042-7.35547 12.3906-7.71745 12.8047-7.99609 13.3464-8.19141 13.888-8.38672 14.5156-8.48438 15.2292-8.48438 15.9375-8.48438 16.513-8.40104 16.9557-8.23438 17.3984-8.06771 17.724-7.85807 17.9323-7.60547 18.1406-7.35286 18.2865-7.03385 18.3698-6.64844 18.4167-6.40885 18.4401-5.97656 18.4401-5.35156L18.4401-3.47656C18.4401-2.16927 18.4701-1.34245 18.5299-0.996094 18.5898-0.64974 18.7083-0.317708 18.8854 0L17.4167 0C17.2708-0.291667 17.1771-0.632812 17.1354-1.02344ZM17.0182-4.16406C16.5078-3.95573 15.7422-3.77865 14.7214-3.63281 14.1432-3.54948 13.7344-3.45573 13.4948-3.35156 13.2552-3.2474 13.0703-3.09505 12.9401-2.89453 12.8099-2.69401 12.7448-2.47135 12.7448-2.22656 12.7448-1.85156 12.8867-1.53906 13.1706-1.28906 13.4544-1.03906 13.8698-0.914062 14.4167-0.914062 14.9583-0.914062 15.4401-1.03255 15.862-1.26953 16.2839-1.50651 16.5938-1.83073 16.7917-2.24219 16.9427-2.5599 17.0182-3.02865 17.0182-3.64844ZM20.5625-9.83594 20.5625-11.4531 21.9688-11.4531 21.9688-9.83594ZM20.5625 0 20.5625-8.29688 21.9688-8.29688 21.9688 0ZM24.0234 0 24.0234-11.4531 25.4297-11.4531 25.4297 0ZM27.0312-4.14844C27.0312-5.6849 27.4583-6.82292 28.3125-7.5625 29.026-8.17708 29.8958-8.48438 30.9219-8.48438 32.0625-8.48438 32.9948-8.11068 33.7188-7.36328 34.4427-6.61589 34.8047-5.58333 34.8047-4.26562 34.8047-3.19792 34.6445-2.35807 34.3242-1.74609 34.0039-1.13411 33.5378-0.658854 32.9258-0.320312 32.3138 0.0182292 31.6458 0.1875 30.9219 0.1875 29.7604 0.1875 28.8216-0.184896 28.1055-0.929688 27.3893-1.67448 27.0312-2.7474 27.0312-4.14844ZM28.4766-4.14844C28.4766-3.08594 28.7083-2.29036 29.1719-1.76172 29.6354-1.23307 30.2188-0.96875 30.9219-0.96875 31.6198-0.96875 32.2005-1.23438 32.6641-1.76562 33.1276-2.29688 33.3594-3.10677 33.3594-4.19531 33.3594-5.22135 33.1263-5.9987 32.6602-6.52734 32.194-7.05599 31.6146-7.32031 30.9219-7.32031 30.2188-7.32031 29.6354-7.05729 29.1719-6.53125 28.7083-6.00521 28.4766-5.21094 28.4766-4.14844ZM36.3724 0 36.3724-8.29688 37.638-8.29688 37.638-7.03906C37.9609-7.6276 38.2591-8.01562 38.5326-8.20312 38.806-8.39062 39.1068-8.48438 39.4349-8.48438 39.9089-8.48438 40.3906-8.33333 40.8802-8.03125L40.3958-6.72656C40.0521-6.92969 39.7083-7.03125 39.3646-7.03125 39.0573-7.03125 38.7812-6.9388 38.5365-6.75391 38.2917-6.56901 38.1172-6.3125 38.013-5.98438 37.8568-5.48438 37.7786-4.9375 37.7786-4.34375L37.7786 0Z" fill="#FFFFFF" transform="translate(16.9592 28)"/></g></g></g><rect x="985" y="424" width="73" height="26" stroke="#000000" stroke-width="2" stroke-miterlimit="8"/><g clip-path="url(#clip13)" filter="url(#fx3)" transform="translate(991 422)"><g clip-path="url(#clip14)"><path d="M0.71875-3.67969 2.14844-3.80469C2.21615-3.23177 2.3737-2.76172 2.62109-2.39453 2.86849-2.02734 3.2526-1.73047 3.77344-1.50391 4.29427-1.27734 4.88021-1.16406 5.53125-1.16406 6.10937-1.16406 6.61979-1.25 7.0625-1.42188 7.50521-1.59375 7.83464-1.82943 8.05078-2.12891 8.26693-2.42839 8.375-2.75521 8.375-3.10938 8.375-3.46875 8.27083-3.78255 8.0625-4.05078 7.85417-4.31901 7.51042-4.54427 7.03125-4.72656 6.72396-4.84635 6.04427-5.03255 4.99219-5.28516 3.9401-5.53776 3.20312-5.77604 2.78125-6 2.23438-6.28646 1.82682-6.64193 1.55859-7.06641 1.29036-7.49089 1.15625-7.96615 1.15625-8.49219 1.15625-9.07031 1.32031-9.61068 1.64844-10.1133 1.97656-10.6159 2.45573-10.9974 3.08594-11.2578 3.71615-11.5182 4.41667-11.6484 5.1875-11.6484 6.03646-11.6484 6.78516-11.5117 7.43359-11.2383 8.08203-10.9648 8.58073-10.5625 8.92969-10.0312 9.27865-9.5 9.46615-8.89844 9.49219-8.22656L8.03906-8.11719C7.96094-8.84115 7.69661-9.38802 7.24609-9.75781 6.79557-10.1276 6.13021-10.3125 5.25-10.3125 4.33333-10.3125 3.66536-10.1445 3.24609-9.80859 2.82682-9.47266 2.61719-9.06771 2.61719-8.59375 2.61719-8.18229 2.76562-7.84375 3.0625-7.57812 3.35417-7.3125 4.11589-7.04036 5.34766-6.76172 6.57943-6.48307 7.42448-6.23958 7.88281-6.03125 8.54948-5.72396 9.04167-5.33464 9.35938-4.86328 9.67708-4.39193 9.83594-3.84896 9.83594-3.23438 9.83594-2.625 9.66146-2.05078 9.3125-1.51172 8.96354-0.972656 8.46224-0.553385 7.80859-0.253906 7.15495 0.0455729 6.41927 0.195312 5.60156 0.195312 4.5651 0.195312 3.69661 0.0442708 2.99609-0.257812 2.29557-0.559896 1.74609-1.01432 1.34766-1.62109 0.949219-2.22786 0.739583-2.91406 0.71875-3.67969ZM17.1354-1.02344C16.6146-0.580729 16.1133-0.268229 15.6315-0.0859375 15.1497 0.0963542 14.6328 0.1875 14.0807 0.1875 13.1693 0.1875 12.4688-0.0351563 11.9792-0.480469 11.4896-0.925781 11.2448-1.49479 11.2448-2.1875 11.2448-2.59375 11.3372-2.96484 11.5221-3.30078 11.707-3.63672 11.9492-3.90625 12.2487-4.10938 12.5482-4.3125 12.8854-4.46615 13.2604-4.57031 13.5365-4.64323 13.9531-4.71354 14.5104-4.78125 15.6458-4.91667 16.4818-5.07812 17.0182-5.26562 17.0234-5.45833 17.026-5.58073 17.026-5.63281 17.026-6.20573 16.8932-6.60937 16.6276-6.84375 16.2682-7.16146 15.7344-7.32031 15.026-7.32031 14.3646-7.32031 13.8763-7.20443 13.5612-6.97266 13.2461-6.74089 13.013-6.33073 12.862-5.74219L11.487-5.92969C11.612-6.51823 11.8177-6.99349 12.1042-7.35547 12.3906-7.71745 12.8047-7.99609 13.3464-8.19141 13.888-8.38672 14.5156-8.48438 15.2292-8.48438 15.9375-8.48438 16.513-8.40104 16.9557-8.23438 17.3984-8.06771 17.724-7.85807 17.9323-7.60547 18.1406-7.35286 18.2865-7.03385 18.3698-6.64844 18.4167-6.40885 18.4401-5.97656 18.4401-5.35156L18.4401-3.47656C18.4401-2.16927 18.4701-1.34245 18.5299-0.996094 18.5898-0.64974 18.7083-0.317708 18.8854 0L17.4167 0C17.2708-0.291667 17.1771-0.632812 17.1354-1.02344ZM17.0182-4.16406C16.5078-3.95573 15.7422-3.77865 14.7214-3.63281 14.1432-3.54948 13.7344-3.45573 13.4948-3.35156 13.2552-3.2474 13.0703-3.09505 12.9401-2.89453 12.8099-2.69401 12.7448-2.47135 12.7448-2.22656 12.7448-1.85156 12.8867-1.53906 13.1706-1.28906 13.4544-1.03906 13.8698-0.914062 14.4167-0.914062 14.9583-0.914062 15.4401-1.03255 15.862-1.26953 16.2839-1.50651 16.5938-1.83073 16.7917-2.24219 16.9427-2.5599 17.0182-3.02865 17.0182-3.64844ZM20.5625-9.83594 20.5625-11.4531 21.9688-11.4531 21.9688-9.83594ZM20.5625 0 20.5625-8.29688 21.9688-8.29688 21.9688 0ZM24.0234 0 24.0234-11.4531 25.4297-11.4531 25.4297 0ZM27.0312-4.14844C27.0312-5.6849 27.4583-6.82292 28.3125-7.5625 29.026-8.17708 29.8958-8.48438 30.9219-8.48438 32.0625-8.48438 32.9948-8.11068 33.7188-7.36328 34.4427-6.61589 34.8047-5.58333 34.8047-4.26562 34.8047-3.19792 34.6445-2.35807 34.3242-1.74609 34.0039-1.13411 33.5378-0.658854 32.9258-0.320312 32.3138 0.0182292 31.6458 0.1875 30.9219 0.1875 29.7604 0.1875 28.8216-0.184896 28.1055-0.929688 27.3893-1.67448 27.0312-2.7474 27.0312-4.14844ZM28.4766-4.14844C28.4766-3.08594 28.7083-2.29036 29.1719-1.76172 29.6354-1.23307 30.2188-0.96875 30.9219-0.96875 31.6198-0.96875 32.2005-1.23438 32.6641-1.76562 33.1276-2.29688 33.3594-3.10677 33.3594-4.19531 33.3594-5.22135 33.1263-5.9987 32.6602-6.52734 32.194-7.05599 31.6146-7.32031 30.9219-7.32031 30.2188-7.32031 29.6354-7.05729 29.1719-6.53125 28.7083-6.00521 28.4766-5.21094 28.4766-4.14844ZM36.3724 0 36.3724-8.29688 37.638-8.29688 37.638-7.03906C37.9609-7.6276 38.2591-8.01562 38.5326-8.20312 38.806-8.39062 39.1068-8.48438 39.4349-8.48438 39.9089-8.48438 40.3906-8.33333 40.8802-8.03125L40.3958-6.72656C40.0521-6.92969 39.7083-7.03125 39.3646-7.03125 39.0573-7.03125 38.7812-6.9388 38.5365-6.75391 38.2917-6.56901 38.1172-6.3125 38.013-5.98438 37.8568-5.48438 37.7786-4.9375 37.7786-4.34375L37.7786 0Z" fill="#FFFFFF" transform="translate(12.7335 24)"/></g></g><text fill="#FFFFFF" font-family="Arial,Arial_MSFontService,sans-serif" font-weight="400" font-size="16" transform="translate(1001.13 443)">Sailor</text><rect x="985" y="474" width="73" height="26" stroke="#000000" stroke-width="2" stroke-miterlimit="8" fill="#FFFFFF"/><text font-family="Arial,Arial_MSFontService,sans-serif" font-weight="400" font-size="16" transform="translate(1011.3 494)">sid</text><rect x="985" y="449" width="73" height="26" stroke="#000000" stroke-width="2" stroke-miterlimit="8" fill="#FFFFFF"/><text font-family="Arial,Arial_MSFontService,sans-serif" font-weight="400" font-size="16" transform="translate(997.547 469)">sname</text><rect x="1085" y="424" width="81" height="26" stroke="#000000" stroke-width="2" stroke-miterlimit="8"/><text fill="#FFFFFF" font-family="Arial,Arial_MSFontService,sans-serif" font-weight="400" font-size="16" transform="translate(1091.97 443)">Reserves</text><rect x="1085" y="474" width="81" height="26" stroke="#000000" stroke-width="2" stroke-miterlimit="8" fill="#FFFFFF"/><text font-family="Arial,Arial_MSFontService,sans-serif" font-weight="400" font-size="16" transform="translate(1115.47 494)">sid</text><rect x="1085" y="449" width="81" height="26" stroke="#000000" stroke-width="2" stroke-miterlimit="8" fill="#FFFFFF"/><text font-family="Arial,Arial_MSFontService,sans-serif" font-weight="400" font-size="16" transform="translate(1115.05 469)">bid</text><rect x="1187" y="424" width="58" height="26" stroke="#000000" stroke-width="2" stroke-miterlimit="8"/><text fill="#FFFFFF" font-family="Arial,Arial_MSFontService,sans-serif" font-weight="400" font-size="16" transform="translate(1199.81 443)">Boat</text><rect x="1187" y="449" width="58" height="26" stroke="#000000" stroke-width="2" stroke-miterlimit="8" fill="#FFFFFF"/><text font-family="Arial,Arial_MSFontService,sans-serif" font-weight="400" font-size="16" transform="translate(1205.64 469)">bid</text><path d="M1187.38 462.147 1166 462" stroke="#000000" stroke-width="2" stroke-miterlimit="8" fill="none" fill-rule="evenodd"/><path d="M0 0 27.348 0.000104987" stroke="#000000" stroke-width="2" stroke-miterlimit="8" fill="none" fill-rule="evenodd" transform="matrix(-1 0 0 1 1085.35 487)"/><path d="M1075 258.869C1075 251.209 1081.21 245 1088.87 245L1247.13 245C1254.79 245 1261 251.209 1261 258.869L1261 329.131C1261 336.791 1254.79 343 1247.13 343L1088.87 343C1081.21 343 1075 336.791 1075 329.131Z" stroke="#000000" stroke-width="2" stroke-miterlimit="8" stroke-dasharray="8 6" fill="#FFFFFF" fill-rule="evenodd"/><path d="M968 294 986.377 294" stroke="#000000" stroke-width="2" stroke-miterlimit="8" fill="none" fill-rule="evenodd"/><rect x="906" y="256" width="62" height="26" stroke="#000000" stroke-width="2" stroke-miterlimit="8" fill="#D9D9D9"/><text font-family="Arial,Arial_MSFontService,sans-serif" font-weight="400" font-size="16" transform="translate(930.775 275)">Q</text><rect x="906" y="281" width="62" height="26" stroke="#000000" stroke-width="2" stroke-miterlimit="8" fill="#FFFFFF"/><text font-family="Arial,Arial_MSFontService,sans-serif" font-weight="400" font-size="16" transform="translate(913.108 301)">sname</text><rect x="986" y="256" width="73" height="26" stroke="#000000" stroke-width="2" stroke-miterlimit="8"/><text fill="#FFFFFF" font-family="Arial,Arial_MSFontService,sans-serif" font-weight="400" font-size="16" transform="translate(1002.24 275)">Sailor</text><rect x="986" y="306" width="73" height="26" stroke="#000000" stroke-width="2" stroke-miterlimit="8" fill="#FFFFFF"/><text font-family="Arial,Arial_MSFontService,sans-serif" font-weight="400" font-size="16" transform="translate(1012.41 326)">sid</text><rect x="986" y="281" width="73" height="26" stroke="#000000" stroke-width="2" stroke-miterlimit="8" fill="#FFFFFF"/><text font-family="Arial,Arial_MSFontService,sans-serif" font-weight="400" font-size="16" transform="translate(998.66 301)">sname</text><rect x="1086" y="256" width="81" height="26" stroke="#000000" stroke-width="2" stroke-miterlimit="8"/><text fill="#FFFFFF" font-family="Arial,Arial_MSFontService,sans-serif" font-weight="400" font-size="16" transform="translate(1093.08 275)">Reserves</text><rect x="1086" y="306" width="81" height="26" stroke="#000000" stroke-width="2" stroke-miterlimit="8" fill="#FFFFFF"/><text font-family="Arial,Arial_MSFontService,sans-serif" font-weight="400" font-size="16" transform="translate(1116.58 326)">sid</text><rect x="1086" y="281" width="81" height="26" stroke="#000000" stroke-width="2" stroke-miterlimit="8" fill="#FFFFFF"/><text font-family="Arial,Arial_MSFontService,sans-serif" font-weight="400" font-size="16" transform="translate(1116.16 301)">bid</text><rect x="1189" y="256" width="57" height="26" stroke="#000000" stroke-width="2" stroke-miterlimit="8"/><text fill="#FFFFFF" font-family="Arial,Arial_MSFontService,sans-serif" font-weight="400" font-size="16" transform="translate(1200.92 275)">Boat</text><rect x="1189" y="282" width="57" height="25" stroke="#000000" stroke-width="2" stroke-miterlimit="8" fill="#FFFFFF"/><text font-family="Arial,Arial_MSFontService,sans-serif" font-weight="400" font-size="16" transform="translate(1206.76 301)">bid</text><path d="M1188.38 294.147 1167 294" stroke="#000000" stroke-width="2" stroke-miterlimit="8" fill="none" fill-rule="evenodd"/><path d="M0 0 27.3481 0.000104987" stroke="#000000" stroke-width="2" stroke-miterlimit="8" fill="none" fill-rule="evenodd" transform="matrix(-1 0 0 1 1086.35 319)"/><path d="M968 127 986.377 127" stroke="#000000" stroke-width="2" stroke-miterlimit="8" fill="none" fill-rule="evenodd"/><rect x="906" y="89" width="62" height="25" stroke="#000000" stroke-width="2" stroke-miterlimit="8" fill="#D9D9D9"/><text font-family="Arial,Arial_MSFontService,sans-serif" font-weight="400" font-size="16" transform="translate(930.775 108)">Q</text><rect x="906" y="114" width="62" height="26" stroke="#000000" stroke-width="2" stroke-miterlimit="8" fill="#FFFFFF"/><text font-family="Arial,Arial_MSFontService,sans-serif" font-weight="400" font-size="16" transform="translate(913.108 133)">sname</text><rect x="986" y="89" width="73" height="25" stroke="#000000" stroke-width="2" stroke-miterlimit="8"/><g clip-path="url(#clip15)" filter="url(#fx4)" transform="translate(991 85)"><g clip-path="url(#clip16)"><path d="M0.71875-3.67969 2.14844-3.80469C2.21615-3.23177 2.3737-2.76172 2.62109-2.39453 2.86849-2.02734 3.2526-1.73047 3.77344-1.50391 4.29427-1.27734 4.88021-1.16406 5.53125-1.16406 6.10937-1.16406 6.61979-1.25 7.0625-1.42188 7.50521-1.59375 7.83464-1.82943 8.05078-2.12891 8.26693-2.42839 8.375-2.75521 8.375-3.10938 8.375-3.46875 8.27083-3.78255 8.0625-4.05078 7.85417-4.31901 7.51042-4.54427 7.03125-4.72656 6.72396-4.84635 6.04427-5.03255 4.99219-5.28516 3.9401-5.53776 3.20312-5.77604 2.78125-6 2.23438-6.28646 1.82682-6.64193 1.55859-7.06641 1.29036-7.49089 1.15625-7.96615 1.15625-8.49219 1.15625-9.07031 1.32031-9.61068 1.64844-10.1133 1.97656-10.6159 2.45573-10.9974 3.08594-11.2578 3.71615-11.5182 4.41667-11.6484 5.1875-11.6484 6.03646-11.6484 6.78516-11.5117 7.43359-11.2383 8.08203-10.9648 8.58073-10.5625 8.92969-10.0312 9.27865-9.5 9.46615-8.89844 9.49219-8.22656L8.03906-8.11719C7.96094-8.84115 7.69661-9.38802 7.24609-9.75781 6.79557-10.1276 6.13021-10.3125 5.25-10.3125 4.33333-10.3125 3.66536-10.1445 3.24609-9.80859 2.82682-9.47266 2.61719-9.06771 2.61719-8.59375 2.61719-8.18229 2.76562-7.84375 3.0625-7.57812 3.35417-7.3125 4.11589-7.04036 5.34766-6.76172 6.57943-6.48307 7.42448-6.23958 7.88281-6.03125 8.54948-5.72396 9.04167-5.33464 9.35938-4.86328 9.67708-4.39193 9.83594-3.84896 9.83594-3.23438 9.83594-2.625 9.66146-2.05078 9.3125-1.51172 8.96354-0.972656 8.46224-0.553385 7.80859-0.253906 7.15495 0.0455729 6.41927 0.195312 5.60156 0.195312 4.5651 0.195312 3.69661 0.0442708 2.99609-0.257812 2.29557-0.559896 1.74609-1.01432 1.34766-1.62109 0.949219-2.22786 0.739583-2.91406 0.71875-3.67969ZM17.1354-1.02344C16.6146-0.580729 16.1133-0.268229 15.6315-0.0859375 15.1497 0.0963542 14.6328 0.1875 14.0807 0.1875 13.1693 0.1875 12.4688-0.0351563 11.9792-0.480469 11.4896-0.925781 11.2448-1.49479 11.2448-2.1875 11.2448-2.59375 11.3372-2.96484 11.5221-3.30078 11.707-3.63672 11.9492-3.90625 12.2487-4.10938 12.5482-4.3125 12.8854-4.46615 13.2604-4.57031 13.5365-4.64323 13.9531-4.71354 14.5104-4.78125 15.6458-4.91667 16.4818-5.07812 17.0182-5.26562 17.0234-5.45833 17.026-5.58073 17.026-5.63281 17.026-6.20573 16.8932-6.60937 16.6276-6.84375 16.2682-7.16146 15.7344-7.32031 15.026-7.32031 14.3646-7.32031 13.8763-7.20443 13.5612-6.97266 13.2461-6.74089 13.013-6.33073 12.862-5.74219L11.487-5.92969C11.612-6.51823 11.8177-6.99349 12.1042-7.35547 12.3906-7.71745 12.8047-7.99609 13.3464-8.19141 13.888-8.38672 14.5156-8.48438 15.2292-8.48438 15.9375-8.48438 16.513-8.40104 16.9557-8.23438 17.3984-8.06771 17.724-7.85807 17.9323-7.60547 18.1406-7.35286 18.2865-7.03385 18.3698-6.64844 18.4167-6.40885 18.4401-5.97656 18.4401-5.35156L18.4401-3.47656C18.4401-2.16927 18.4701-1.34245 18.5299-0.996094 18.5898-0.64974 18.7083-0.317708 18.8854 0L17.4167 0C17.2708-0.291667 17.1771-0.632812 17.1354-1.02344ZM17.0182-4.16406C16.5078-3.95573 15.7422-3.77865 14.7214-3.63281 14.1432-3.54948 13.7344-3.45573 13.4948-3.35156 13.2552-3.2474 13.0703-3.09505 12.9401-2.89453 12.8099-2.69401 12.7448-2.47135 12.7448-2.22656 12.7448-1.85156 12.8867-1.53906 13.1706-1.28906 13.4544-1.03906 13.8698-0.914062 14.4167-0.914062 14.9583-0.914062 15.4401-1.03255 15.862-1.26953 16.2839-1.50651 16.5938-1.83073 16.7917-2.24219 16.9427-2.5599 17.0182-3.02865 17.0182-3.64844ZM20.5625-9.83594 20.5625-11.4531 21.9688-11.4531 21.9688-9.83594ZM20.5625 0 20.5625-8.29688 21.9688-8.29688 21.9688 0ZM24.0234 0 24.0234-11.4531 25.4297-11.4531 25.4297 0ZM27.0312-4.14844C27.0312-5.6849 27.4583-6.82292 28.3125-7.5625 29.026-8.17708 29.8958-8.48438 30.9219-8.48438 32.0625-8.48438 32.9948-8.11068 33.7188-7.36328 34.4427-6.61589 34.8047-5.58333 34.8047-4.26562 34.8047-3.19792 34.6445-2.35807 34.3242-1.74609 34.0039-1.13411 33.5378-0.658854 32.9258-0.320312 32.3138 0.0182292 31.6458 0.1875 30.9219 0.1875 29.7604 0.1875 28.8216-0.184896 28.1055-0.929688 27.3893-1.67448 27.0312-2.7474 27.0312-4.14844ZM28.4766-4.14844C28.4766-3.08594 28.7083-2.29036 29.1719-1.76172 29.6354-1.23307 30.2188-0.96875 30.9219-0.96875 31.6198-0.96875 32.2005-1.23438 32.6641-1.76562 33.1276-2.29688 33.3594-3.10677 33.3594-4.19531 33.3594-5.22135 33.1263-5.9987 32.6602-6.52734 32.194-7.05599 31.6146-7.32031 30.9219-7.32031 30.2188-7.32031 29.6354-7.05729 29.1719-6.53125 28.7083-6.00521 28.4766-5.21094 28.4766-4.14844ZM36.3724 0 36.3724-8.29688 37.638-8.29688 37.638-7.03906C37.9609-7.6276 38.2591-8.01562 38.5326-8.20312 38.806-8.39062 39.1068-8.48438 39.4349-8.48438 39.9089-8.48438 40.3906-8.33333 40.8802-8.03125L40.3958-6.72656C40.0521-6.92969 39.7083-7.03125 39.3646-7.03125 39.0573-7.03125 38.7812-6.9388 38.5365-6.75391 38.2917-6.56901 38.1172-6.3125 38.013-5.98438 37.8568-5.48438 37.7786-4.9375 37.7786-4.34375L37.7786 0Z" fill="#FFFFFF" transform="translate(12.2269 24)"/></g></g><text fill="#FFFFFF" font-family="Arial,Arial_MSFontService,sans-serif" font-weight="400" font-size="16" transform="translate(1002.24 108)">Sailor</text><rect x="986" y="139" width="73" height="26" stroke="#000000" stroke-width="2" stroke-miterlimit="8" fill="#FFFFFF"/><text font-family="Arial,Arial_MSFontService,sans-serif" font-weight="400" font-size="16" transform="translate(1012.41 158)">sid</text><rect x="986" y="114" width="73" height="26" stroke="#000000" stroke-width="2" stroke-miterlimit="8" fill="#FFFFFF"/><text font-family="Arial,Arial_MSFontService,sans-serif" font-weight="400" font-size="16" transform="translate(998.66 133)">sname</text><rect x="1086" y="89" width="81" height="25" stroke="#000000" stroke-width="2" stroke-miterlimit="8"/><text fill="#FFFFFF" font-family="Arial,Arial_MSFontService,sans-serif" font-weight="400" font-size="16" transform="translate(1093.08 108)">Reserves</text><rect x="1086" y="139" width="81" height="26" stroke="#000000" stroke-width="2" stroke-miterlimit="8" fill="#FFFFFF"/><text font-family="Arial,Arial_MSFontService,sans-serif" font-weight="400" font-size="16" transform="translate(1116.58 158)">sid</text><rect x="1086" y="114" width="81" height="26" stroke="#000000" stroke-width="2" stroke-miterlimit="8" fill="#FFFFFF"/><text font-family="Arial,Arial_MSFontService,sans-serif" font-weight="400" font-size="16" transform="translate(1116.16 133)">bid</text><rect x="1189" y="89" width="57" height="26" stroke="#000000" stroke-width="2" stroke-miterlimit="8"/><text fill="#FFFFFF" font-family="Arial,Arial_MSFontService,sans-serif" font-weight="400" font-size="16" transform="translate(1200.92 108)">Boat</text><rect x="1189" y="114" width="57" height="26" stroke="#000000" stroke-width="2" stroke-miterlimit="8" fill="#FFFFFF"/><text font-family="Arial,Arial_MSFontService,sans-serif" font-weight="400" font-size="16" transform="translate(1206.76 133)">bid</text><path d="M1188.38 127.147 1167 127" stroke="#000000" stroke-width="2" stroke-miterlimit="8" fill="none" fill-rule="evenodd"/><path d="M0 0 27.3481 0.000104987" stroke="#000000" stroke-width="2" stroke-miterlimit="8" fill="none" fill-rule="evenodd" transform="matrix(-1 0 0 1 1086.35 152)"/><text font-family="Arial,Arial_MSFontService,sans-serif" font-weight="400" font-size="27" transform="translate(516.742 623)">Find sailors who <tspan font-size="27" x="0" y="32">have reserved </tspan><tspan font-weight="700" font-size="27" x="176.167" y="32">all</tspan><tspan font-size="27" x="213" y="32">boats.</tspan><tspan font-size="27" x="0" y="-510">Find sailors who </tspan><tspan font-size="27" x="0" y="-478">have reserved </tspan><tspan font-weight="700" font-size="27" x="176.167" y="-478">some</tspan><tspan font-size="27" x="253.167" y="-478">boat.</tspan><tspan font-size="27" x="0" y="-340">Find sailors who </tspan><tspan font-size="27" x="0" y="-308">have </tspan><tspan font-weight="700" font-size="27" x="65.1667" y="-308">not</tspan><tspan font-size="27" x="114" y="-308">reserved </tspan><tspan font-weight="700" font-size="27" x="225" y="-308">any</tspan><tspan font-size="27" x="278.333" y="-308">boat.</tspan><tspan font-size="27" x="0" y="-170">Find sailors who </tspan><tspan font-size="27" x="0" y="-138">have </tspan><tspan font-weight="700" font-size="27" x="65.1667" y="-138">not</tspan><tspan font-size="27" x="114" y="-138">reserved </tspan><tspan font-weight="700" font-size="27" x="225" y="-138">all </tspan><tspan font-size="27" x="261.833" y="-138">boats.</tspan><tspan fill="#990088" font-family="Source Code Pro,Source Code Pro_MSFontService,sans-serif" font-size="13" x="-489.562" y="-533">SELECT</tspan><tspan font-family="Source Code Pro,Source Code Pro_MSFontService,sans-serif" font-size="13" x="-433.562" y="-533">S.sname</tspan><tspan fill="#990088" font-family="Source Code Pro,Source Code Pro_MSFontService,sans-serif" font-size="13" x="-489.562" y="-513">FROM</tspan><tspan font-family="Source Code Pro,Source Code Pro_MSFontService,sans-serif" font-size="13" x="-449.562" y="-513">Sailor S</tspan><tspan fill="#990088" font-family="Source Code Pro,Source Code Pro_MSFontService,sans-serif" font-size="13" x="-489.562" y="-494">WHERE EXISTS</tspan><tspan font-family="Source Code Pro,Source Code Pro_MSFontService,sans-serif" font-size="13" x="-393.562" y="-494">(</tspan><tspan fill="#990088" font-family="Source Code Pro,Source Code Pro_MSFontService,sans-serif" font-size="13" x="-473.562" y="-475">SELECT</tspan><tspan font-family="Source Code Pro,Source Code Pro_MSFontService,sans-serif" font-size="13" x="-417.562" y="-475">*</tspan><tspan fill="#990088" font-family="Source Code Pro,Source Code Pro_MSFontService,sans-serif" font-size="13" x="-473.562" y="-456">FROM</tspan><tspan font-family="Source Code Pro,Source Code Pro_MSFontService,sans-serif" font-size="13" x="-433.562" y="-456">Reserves R</tspan><tspan fill="#990088" font-family="Source Code Pro,Source Code Pro_MSFontService,sans-serif" font-size="13" x="-473.562" y="-437">AND </tspan><tspan font-family="Source Code Pro,Source Code Pro_MSFontService,sans-serif" font-size="13" x="-441.562" y="-437">R.sid</tspan><tspan font-family="Source Code Pro,Source Code Pro_MSFontService,sans-serif" font-size="13" x="-393.562" y="-437">= </tspan><tspan font-family="Source Code Pro,Source Code Pro_MSFontService,sans-serif" font-size="13" x="-377.562" y="-437">S.sid</tspan><tspan fill="#990088" font-family="Source Code Pro,Source Code Pro_MSFontService,sans-serif" font-size="13" x="-473.562" y="-417">WHERE</tspan><tspan fill="#990088" font-family="Source Code Pro,Source Code Pro_MSFontService,sans-serif" font-size="13" x="-425.562" y="-417">EXISTS</tspan><tspan font-family="Source Code Pro,Source Code Pro_MSFontService,sans-serif" font-size="13" x="-377.562" y="-417">(</tspan><tspan fill="#990088" font-family="Source Code Pro,Source Code Pro_MSFontService,sans-serif" font-size="13" x="-457.562" y="-398">SELECT</tspan><tspan font-family="Source Code Pro,Source Code Pro_MSFontService,sans-serif" font-size="13" x="-401.562" y="-398">*</tspan><tspan fill="#990088" font-family="Source Code Pro,Source Code Pro_MSFontService,sans-serif" font-size="13" x="-457.562" y="-379">FROM</tspan><tspan font-family="Source Code Pro,Source Code Pro_MSFontService,sans-serif" font-size="13" x="-417.562" y="-379">Boat B</tspan><tspan fill="#990088" font-family="Source Code Pro,Source Code Pro_MSFontService,sans-serif" font-size="13" x="-457.562" y="-360">WHERE</tspan><tspan font-family="Source Code Pro,Source Code Pro_MSFontService,sans-serif" font-size="13" x="-409.562" y="-360">B.bid</tspan><tspan font-family="Source Code Pro,Source Code Pro_MSFontService,sans-serif" font-size="13" x="-361.562" y="-360">= </tspan><tspan font-family="Source Code Pro,Source Code Pro_MSFontService,sans-serif" font-size="13" x="-345.562" y="-360">R.bid</tspan><tspan font-family="Source Code Pro,Source Code Pro_MSFontService,sans-serif" font-size="13" x="-305.562" y="-360">))</tspan><tspan fill="#990088" font-family="Source Code Pro,Source Code Pro_MSFontService,sans-serif" font-size="13" x="-255.724" y="-416">SELECT</tspan><tspan font-family="Source Code Pro,Source Code Pro_MSFontService,sans-serif" font-size="13" x="-199.724" y="-416">S.sname</tspan><tspan fill="#990088" font-family="Source Code Pro,Source Code Pro_MSFontService,sans-serif" font-size="13" x="-255.724" y="-396">FROM</tspan><tspan font-family="Source Code Pro,Source Code Pro_MSFontService,sans-serif" font-size="13" x="-215.724" y="-396">Sailor S</tspan><tspan fill="#990088" font-family="Source Code Pro,Source Code Pro_MSFontService,sans-serif" font-size="13" x="-255.724" y="-377">WHERE NOT EXISTS</tspan><tspan font-family="Source Code Pro,Source Code Pro_MSFontService,sans-serif" font-size="13" x="-127.724" y="-377">(</tspan><tspan fill="#990088" font-family="Source Code Pro,Source Code Pro_MSFontService,sans-serif" font-size="13" x="-239.724" y="-358">SELECT</tspan><tspan font-family="Source Code Pro,Source Code Pro_MSFontService,sans-serif" font-size="13" x="-183.724" y="-358">*</tspan><tspan fill="#990088" font-family="Source Code Pro,Source Code Pro_MSFontService,sans-serif" font-size="13" x="-239.724" y="-339">FROM</tspan><tspan font-family="Source Code Pro,Source Code Pro_MSFontService,sans-serif" font-size="13" x="-199.724" y="-339">Reserves R</tspan><tspan fill="#990088" font-family="Source Code Pro,Source Code Pro_MSFontService,sans-serif" font-size="13" x="-239.724" y="-320">AND </tspan><tspan font-family="Source Code Pro,Source Code Pro_MSFontService,sans-serif" font-size="13" x="-207.724" y="-320">R.sid</tspan><tspan font-family="Source Code Pro,Source Code Pro_MSFontService,sans-serif" font-size="13" x="-159.724" y="-320">= </tspan><tspan font-family="Source Code Pro,Source Code Pro_MSFontService,sans-serif" font-size="13" x="-143.724" y="-320">S.sid</tspan><tspan fill="#990088" font-family="Source Code Pro,Source Code Pro_MSFontService,sans-serif" font-size="13" x="-239.724" y="-300">WHERE</tspan><tspan fill="#990088" font-family="Source Code Pro,Source Code Pro_MSFontService,sans-serif" font-size="13" x="-191.724" y="-300">EXISTS</tspan><tspan font-family="Source Code Pro,Source Code Pro_MSFontService,sans-serif" font-size="13" x="-143.724" y="-300">(</tspan><tspan fill="#990088" font-family="Source Code Pro,Source Code Pro_MSFontService,sans-serif" font-size="13" x="-223.724" y="-281">SELECT</tspan><tspan font-family="Source Code Pro,Source Code Pro_MSFontService,sans-serif" font-size="13" x="-167.724" y="-281">*</tspan><tspan fill="#990088" font-family="Source Code Pro,Source Code Pro_MSFontService,sans-serif" font-size="13" x="-223.724" y="-262">FROM</tspan><tspan font-family="Source Code Pro,Source Code Pro_MSFontService,sans-serif" font-size="13" x="-183.724" y="-262">Boat B</tspan><tspan fill="#990088" font-family="Source Code Pro,Source Code Pro_MSFontService,sans-serif" font-size="13" x="-223.724" y="-243">WHERE</tspan><tspan font-family="Source Code Pro,Source Code Pro_MSFontService,sans-serif" font-size="13" x="-175.724" y="-243">B.bid</tspan><tspan font-family="Source Code Pro,Source Code Pro_MSFontService,sans-serif" font-size="13" x="-127.724" y="-243">= </tspan><tspan font-family="Source Code Pro,Source Code Pro_MSFontService,sans-serif" font-size="13" x="-111.724" y="-243">R.bid</tspan><tspan font-family="Source Code Pro,Source Code Pro_MSFontService,sans-serif" font-size="13" x="-71.7241" y="-243">))</tspan><tspan fill="#990088" font-family="Source Code Pro,Source Code Pro_MSFontService,sans-serif" font-size="13" x="-489.562" y="-242">SELECT</tspan><tspan font-family="Source Code Pro,Source Code Pro_MSFontService,sans-serif" font-size="13" x="-433.562" y="-242">S.sname</tspan><tspan fill="#990088" font-family="Source Code Pro,Source Code Pro_MSFontService,sans-serif" font-size="13" x="-489.562" y="-222">FROM</tspan><tspan font-family="Source Code Pro,Source Code Pro_MSFontService,sans-serif" font-size="13" x="-449.562" y="-222">Sailor S</tspan><tspan fill="#990088" font-family="Source Code Pro,Source Code Pro_MSFontService,sans-serif" font-size="13" x="-489.562" y="-203">WHERE EXISTS</tspan><tspan font-family="Source Code Pro,Source Code Pro_MSFontService,sans-serif" font-size="13" x="-393.562" y="-203">(</tspan><tspan fill="#990088" font-family="Source Code Pro,Source Code Pro_MSFontService,sans-serif" font-size="13" x="-473.562" y="-184">SELECT</tspan><tspan font-family="Source Code Pro,Source Code Pro_MSFontService,sans-serif" font-size="13" x="-417.562" y="-184">*</tspan><tspan fill="#990088" font-family="Source Code Pro,Source Code Pro_MSFontService,sans-serif" font-size="13" x="-473.562" y="-165">FROM</tspan><tspan font-family="Source Code Pro,Source Code Pro_MSFontService,sans-serif" font-size="13" x="-433.562" y="-165">Boat B</tspan><tspan fill="#990088" font-family="Source Code Pro,Source Code Pro_MSFontService,sans-serif" font-size="13" x="-473.562" y="-146">WHERE NOT EXISTS</tspan><tspan font-family="Source Code Pro,Source Code Pro_MSFontService,sans-serif" font-size="13" x="-345.562" y="-146">(</tspan><tspan fill="#990088" font-family="Source Code Pro,Source Code Pro_MSFontService,sans-serif" font-size="13" x="-457.562" y="-126">SELECT</tspan><tspan font-family="Source Code Pro,Source Code Pro_MSFontService,sans-serif" font-size="13" x="-401.562" y="-126">*</tspan><tspan fill="#990088" font-family="Source Code Pro,Source Code Pro_MSFontService,sans-serif" font-size="13" x="-457.562" y="-107">FROM</tspan><tspan font-family="Source Code Pro,Source Code Pro_MSFontService,sans-serif" font-size="13" x="-417.562" y="-107">Reserves R</tspan><tspan fill="#990088" font-family="Source Code Pro,Source Code Pro_MSFontService,sans-serif" font-size="13" x="-457.562" y="-88">WHERE</tspan><tspan font-family="Source Code Pro,Source Code Pro_MSFontService,sans-serif" font-size="13" x="-409.562" y="-88">R.bid</tspan><tspan font-family="Source Code Pro,Source Code Pro_MSFontService,sans-serif" font-size="13" x="-361.562" y="-88">= </tspan><tspan font-family="Source Code Pro,Source Code Pro_MSFontService,sans-serif" font-size="13" x="-345.562" y="-88">B.bid</tspan><tspan fill="#990088" font-family="Source Code Pro,Source Code Pro_MSFontService,sans-serif" font-size="13" x="-457.562" y="-69">AND </tspan><tspan font-family="Source Code Pro,Source Code Pro_MSFontService,sans-serif" font-size="13" x="-425.562" y="-69">R.sid</tspan><tspan font-family="Source Code Pro,Source Code Pro_MSFontService,sans-serif" font-size="13" x="-377.562" y="-69">= </tspan><tspan font-family="Source Code Pro,Source Code Pro_MSFontService,sans-serif" font-size="13" x="-361.562" y="-69">S.sid</tspan><tspan font-family="Source Code Pro,Source Code Pro_MSFontService,sans-serif" font-size="13" x="-321.562" y="-69">))</tspan><tspan fill="#990088" font-family="Source Code Pro,Source Code Pro_MSFontService,sans-serif" font-size="13" x="-255.724" y="-90">SELECT</tspan><tspan font-family="Source Code Pro,Source Code Pro_MSFontService,sans-serif" font-size="13" x="-199.724" y="-90">S.sname</tspan><tspan fill="#990088" font-family="Source Code Pro,Source Code Pro_MSFontService,sans-serif" font-size="13" x="-255.724" y="-70">FROM</tspan><tspan font-family="Source Code Pro,Source Code Pro_MSFontService,sans-serif" font-size="13" x="-215.724" y="-70">Sailor S</tspan><tspan fill="#990088" font-family="Source Code Pro,Source Code Pro_MSFontService,sans-serif" font-size="13" x="-255.724" y="-51">WHERE NOT EXISTS</tspan><tspan font-family="Source Code Pro,Source Code Pro_MSFontService,sans-serif" font-size="13" x="-127.724" y="-51">(</tspan><tspan fill="#990088" font-family="Source Code Pro,Source Code Pro_MSFontService,sans-serif" font-size="13" x="-239.724" y="-32">SELECT</tspan><tspan font-family="Source Code Pro,Source Code Pro_MSFontService,sans-serif" font-size="13" x="-183.724" y="-32">*</tspan><tspan fill="#990088" font-family="Source Code Pro,Source Code Pro_MSFontService,sans-serif" font-size="13" x="-239.724" y="-13">FROM</tspan><tspan font-family="Source Code Pro,Source Code Pro_MSFontService,sans-serif" font-size="13" x="-199.724" y="-13">Boat B</tspan><tspan fill="#990088" font-family="Source Code Pro,Source Code Pro_MSFontService,sans-serif" font-size="13" x="-239.724" y="6">WHERE NOT EXISTS</tspan><tspan font-family="Source Code Pro,Source Code Pro_MSFontService,sans-serif" font-size="13" x="-111.724" y="6">(</tspan><tspan fill="#990088" font-family="Source Code Pro,Source Code Pro_MSFontService,sans-serif" font-size="13" x="-223.724" y="26">SELECT</tspan><tspan font-family="Source Code Pro,Source Code Pro_MSFontService,sans-serif" font-size="13" x="-167.724" y="26">*</tspan><tspan fill="#990088" font-family="Source Code Pro,Source Code Pro_MSFontService,sans-serif" font-size="13" x="-223.724" y="45">FROM</tspan><tspan font-family="Source Code Pro,Source Code Pro_MSFontService,sans-serif" font-size="13" x="-183.724" y="45">Reserves R</tspan><tspan fill="#990088" font-family="Source Code Pro,Source Code Pro_MSFontService,sans-serif" font-size="13" x="-223.724" y="64">WHERE</tspan><tspan font-family="Source Code Pro,Source Code Pro_MSFontService,sans-serif" font-size="13" x="-175.724" y="64">R.bid</tspan><tspan font-family="Source Code Pro,Source Code Pro_MSFontService,sans-serif" font-size="13" x="-127.724" y="64">= </tspan><tspan font-family="Source Code Pro,Source Code Pro_MSFontService,sans-serif" font-size="13" x="-111.724" y="64">B.bid</tspan><tspan fill="#990088" font-family="Source Code Pro,Source Code Pro_MSFontService,sans-serif" font-size="13" x="-223.724" y="83">AND </tspan><tspan font-family="Source Code Pro,Source Code Pro_MSFontService,sans-serif" font-size="13" x="-191.724" y="83">R.sid</tspan><tspan font-family="Source Code Pro,Source Code Pro_MSFontService,sans-serif" font-size="13" x="-143.724" y="83">= </tspan><tspan font-family="Source Code Pro,Source Code Pro_MSFontService,sans-serif" font-size="13" x="-127.724" y="83">S.sid</tspan><tspan font-family="Source Code Pro,Source Code Pro_MSFontService,sans-serif" font-size="13" x="-87.7241" y="83">))</tspan></text><path d="M830.5 301 887.17 301 887.17 302 830.5 302ZM885.837 297.5 893.837 301.5 885.837 305.5Z"/><path d="M830.5 122 887.17 122 887.17 123 830.5 123ZM885.837 118.5 893.837 122.5 885.837 126.5Z"/><path d="M830.5 455 887.17 455 887.17 456 830.5 456ZM885.837 451.5 893.837 455.5 885.837 459.5Z"/><path d="M830.5 631 887.17 631 887.17 632 830.5 632ZM885.837 627.5 893.837 631.5 885.837 635.5Z"/><path d="M1.59688e-07-0.5 322.059-0.499897 322.059 0.500103-1.59688e-07 0.5ZM320.725-3.9999 328.725 0.000104987 320.725 4.0001Z" transform="matrix(-1 0 0 1 500.225 122.5)"/><path d="M1.59688e-07-0.5 322.059-0.499897 322.059 0.500103-1.59688e-07 0.5ZM320.725-3.9999 328.725 0.000104987 320.725 4.0001Z" transform="matrix(-1 0 0 1 500.225 455.5)"/><path d="M506.837 302 450.167 302 450.167 301 506.837 301ZM451.5 305.5 443.5 301.5 451.5 297.5Z"/><path d="M506.837 630 450.167 630 450.167 629 506.837 629ZM451.5 633.5 443.5 629.5 451.5 625.5Z"/><text font-family="Arial,Arial_MSFontService,sans-serif" font-weight="400" font-size="40" transform="translate(10.6004 49)">Overview of the 4 query patterns<tspan font-size="19" x="1144.71" y="-21">Page: 7/8</tspan></text></g></svg>