<svg width="1280" height="720" xmlns="http://www.w3.org/2000/svg" xmlns:xlink="http://www.w3.org/1999/xlink" overflow="hidden"><defs><clipPath id="clip0"><rect x="0" y="0" width="1280" height="720"/></clipPath></defs><g clip-path="url(#clip0)"><rect x="0" y="0" width="1280" height="720" fill="#FFFFFF"/><path d="M607 337 648.395 337" stroke="#000000" stroke-width="2" stroke-miterlimit="8" fill="none" fill-rule="evenodd"/><rect x="473" y="280" width="134" height="39" stroke="#000000" stroke-width="2" stroke-miterlimit="8" fill="#BFBFBF"/><text fill="#FFFFFF" font-family="Arial,Arial_MSFontService,sans-serif" font-weight="400" font-size="23" transform="translate(531.027 308)">Q</text><rect x="473" y="318" width="134" height="39" stroke="#000000" stroke-width="2" stroke-miterlimit="8" fill="#FFFFFF"/><text font-family="Arial,Arial_MSFontService,sans-serif" font-weight="400" font-size="23" transform="translate(505.777 346)">sname</text><rect x="648" y="280" width="135" height="39" stroke="#000000" stroke-width="2" stroke-miterlimit="8"/><text fill="#FFFFFF" font-family="Arial,Arial_MSFontService,sans-serif" font-weight="400" font-size="23" transform="translate(686.656 308)">Sailor</text><rect x="648" y="356" width="135" height="39" stroke="#000000" stroke-width="2" stroke-miterlimit="8" fill="#FFFFFF"/><text font-family="Arial,Arial_MSFontService,sans-serif" font-weight="400" font-size="23" transform="translate(701.156 384)">sid</text><rect x="648" y="318" width="135" height="39" stroke="#000000" stroke-width="2" stroke-miterlimit="8" fill="#FFFFFF"/><text font-family="Arial,Arial_MSFontService,sans-serif" font-weight="400" font-size="23" transform="translate(681.573 346)">sname</text><rect x="824" y="280" width="135" height="39" stroke="#000000" stroke-width="2" stroke-miterlimit="8"/><text fill="#FFFFFF" font-family="Arial,Arial_MSFontService,sans-serif" font-weight="400" font-size="23" transform="translate(843.535 308)">Reserves</text><rect x="824" y="356" width="135" height="39" stroke="#000000" stroke-width="2" stroke-miterlimit="8" fill="#FFFFFF"/><text font-family="Arial,Arial_MSFontService,sans-serif" font-weight="400" font-size="23" transform="translate(876.951 384)">sid</text><rect x="824" y="318" width="135" height="39" stroke="#000000" stroke-width="2" stroke-miterlimit="8" fill="#FFFFFF"/><text font-family="Arial,Arial_MSFontService,sans-serif" font-weight="400" font-size="23" transform="translate(876.285 346)">bid</text><rect x="1000" y="280" width="134" height="39" stroke="#000000" stroke-width="2" stroke-miterlimit="8"/><text fill="#FFFFFF" font-family="Arial,Arial_MSFontService,sans-serif" font-weight="400" font-size="23" transform="translate(1043.83 308)">Boat</text><rect x="1000" y="318" width="134" height="39" stroke="#000000" stroke-width="2" stroke-miterlimit="8" fill="#FFFFFF"/><text font-family="Arial,Arial_MSFontService,sans-serif" font-weight="400" font-size="23" transform="translate(1052.08 346)">bid</text><path d="M1000.4 337.222 959 337" stroke="#000000" stroke-width="2" stroke-miterlimit="8" fill="none" fill-rule="evenodd"/><path d="M0 0 41.3953 0.000104987" stroke="#000000" stroke-width="2" stroke-miterlimit="8" fill="none" fill-rule="evenodd" transform="matrix(-1 0 0 1 824.395 375)"/><text fill="#990088" font-family="Source Code Pro,Source Code Pro_MSFontService,sans-serif" font-weight="400" font-size="23" transform="translate(24.8889 220)">SELECT<tspan fill="#000000" font-size="23" x="95.6667" y="0">S.sname</tspan><tspan font-size="23" x="0" y="33">FROM</tspan><tspan fill="#000000" font-size="23" x="68.3333" y="33">Sailor S</tspan><tspan font-size="23" x="0" y="66">WHERE EXISTS</tspan><tspan fill="#000000" font-size="23" x="164" y="66">(</tspan><tspan font-size="23" x="27.3333" y="98">SELECT</tspan><tspan fill="#000000" font-size="23" x="123" y="98">*</tspan><tspan font-size="23" x="27.3333" y="131">FROM</tspan><tspan fill="#000000" font-size="23" x="95.6667" y="131">Reserves R</tspan><tspan font-size="23" x="27.3333" y="164">WHERE</tspan><tspan fill="#000000" font-size="23" x="109.333" y="164">R.sid</tspan><tspan fill="#000000" font-size="23" x="191.333" y="164">= </tspan><tspan fill="#000000" font-size="23" x="218.667" y="164">S.sid</tspan><tspan font-size="23" x="27.3333" y="196">AND EXISTS</tspan><tspan fill="#000000" font-size="23" x="164" y="196">(</tspan><tspan font-size="23" x="54.6667" y="229">SELECT</tspan><tspan fill="#000000" font-size="23" x="150.333" y="229">*</tspan><tspan font-size="23" x="54.6667" y="262">FROM</tspan><tspan fill="#000000" font-size="23" x="123" y="262">Boat B</tspan><tspan font-size="23" x="54.6667" y="294">WHERE</tspan><tspan fill="#000000" font-size="23" x="136.667" y="294">B.bid</tspan><tspan fill="#000000" font-size="23" x="218.667" y="294">= </tspan><tspan fill="#000000" font-size="23" x="246" y="294">R.bid</tspan><tspan fill="#000000" font-size="23" x="314.333" y="294">))</tspan><tspan fill="#000000" font-family="Arial,Arial_MSFontService,sans-serif" font-size="40" x="-14.2885" y="-171">1. Find sailors who have reserved </tspan><tspan fill="#000000" font-family="Arial,Arial_MSFontService,sans-serif" font-weight="700" font-size="40" x="594.045" y="-171">some</tspan><tspan fill="#000000" font-family="Arial,Arial_MSFontService,sans-serif" font-size="40" x="709.545" y="-171">boat.</tspan><tspan fill="#5A9AD4" font-family="Arial,Arial_MSFontService,sans-serif" font-size="19" x="431.588" y="-85">The Diagram for a query is read as follows:</tspan><tspan fill="#5A9AD4" font-family="Arial,Arial_MSFontService,sans-serif" font-size="19" x="431.588" y="-46">(1) Select the </tspan><tspan fill="#5A9AD4" font-family="Arial,Arial_MSFontService,sans-serif" font-size="19" x="431.588" y="-23">attribute "sname"…</tspan></text><path d="M541.833 206.5 541.833 268.019 539.167 268.019 539.167 206.5ZM544.5 266.686 540.5 274.686 536.5 266.686Z" fill="#5A9AD4"/><text fill="#5A9AD4" font-family="Arial,Arial_MSFontService,sans-serif" font-weight="400" font-size="19" transform="translate(661.713 177)">(2)… for <tspan font-size="19" x="0" y="23">Sailors ...</tspan></text><path d="M716.833 206.5 716.833 268.019 714.167 268.019 714.167 206.5ZM719.5 266.686 715.5 274.686 711.5 266.686Z" fill="#5A9AD4"/><text fill="#5A9AD4" font-family="Arial,Arial_MSFontService,sans-serif" font-weight="400" font-size="19" transform="translate(1000.05 211)">(4)… for SOME boat.<tspan font-size="19" x="-191.569" y="-34">(3) who have a reservation ...</tspan></text><path d="M888.833 188.5 888.833 250.019 886.167 250.019 886.167 188.5ZM891.5 248.686 887.5 256.686 883.5 248.686Z" fill="#5A9AD4"/><path d="M1063.83 216.5 1063.83 249.609 1061.17 249.609 1061.17 216.5ZM1066.5 248.276 1062.5 256.276 1058.5 248.276Z" fill="#5A9AD4"/><text font-family="Arial,Arial_MSFontService,sans-serif" font-weight="400" font-size="19" transform="translate(1155.31 28)">Page: 3/8<tspan fill="#5A9AD4" font-size="19" x="-1130.42" y="107">SQL</tspan></text></g></svg>